<?xml version="1.0" encoding="utf-8"?>
<!-- Generator: Adobe Illustrator 15.0.2, SVG Export Plug-In . SVG Version: 6.00 Build 0)  -->
<!DOCTYPE svg PUBLIC "-//W3C//DTD SVG 1.1//EN" "http://www.w3.org/Graphics/SVG/1.1/DTD/svg11.dtd">
<svg version="1.1"
	 id="svg23773" sodipodi:docbase="C:\Users\james\Desktop\Facebook svg icons" sodipodi:docname="groups.svg" inkscape:output_extension="org.inkscape.output.svg.inkscape" inkscape:version="0.45.1" sodipodi:version="0.32" xmlns:inkscape="http://www.inkscape.org/namespaces/inkscape" xmlns:sodipodi="http://sodipodi.sourceforge.net/DTD/sodipodi-0.dtd" xmlns:rdf="http://www.w3.org/1999/02/22-rdf-syntax-ns#" xmlns:svg="http://www.w3.org/2000/svg" xmlns:cc="http://web.resource.org/cc/" xmlns:dc="http://purl.org/dc/elements/1.1/" inkscape:export-ydpi="720" inkscape:export-filename="C:\Users\james\Desktop\Facebook svg icons\groups.png" inkscape:export-xdpi="720"
	 xmlns="http://www.w3.org/2000/svg" xmlns:xlink="http://www.w3.org/1999/xlink" x="0px" y="0px" width="64px" height="64px"
	 viewBox="0 0 64 64" enable-background="new 0 0 64 64" xml:space="preserve">
<rect x="1" y="8" fill="#FEC77C" stroke="#6E2405" stroke-width="2" width="62" height="48"/>
<sodipodi:namedview  pagecolor="#ffffff" bordercolor="#666666" id="base" inkscape:cx="32" borderopacity="1.0" inkscape:pageopacity="0.0" inkscape:pageshadow="2" inkscape:zoom="5.5" inkscape:cy="32" inkscape:current-layer="layer1" showgrid="true" inkscape:document-units="px" inkscape:grid-bbox="true" inkscape:window-width="765" inkscape:window-height="575" inkscape:window-x="362" inkscape:window-y="226">
	</sodipodi:namedview>
<g id="layer1" inkscape:label="Layer 1" inkscape:groupmode="layer">
	<g id="g23783" transform="translate(1.7272662,-5.6666587)">
		<path id="path22802" sodipodi:nodetypes="ccccccc" fill="#7D7E81" stroke="#58595B" stroke-width="1.3431" d="M18.506,50.667
			h20.89v-3.11c0-2.328-8.694-0.796-6.299-10.112c2.997-11.66-10.486-11.659-7.488,0c2.394,9.323-7.103,7.748-7.103,10.112V50.667z"
			/>
		<path id="path18805" sodipodi:nodetypes="ccccccc" fill="#BEC0C2" stroke="#A7A9AC" stroke-width="1.4651" d="M4.773,50.632
			h22.789v-3.394c0-2.541-9.484-0.868-6.872-11.032c3.27-12.72-11.439-12.718-8.169,0c2.614,10.172-7.748,8.452-7.748,11.032V50.632
			z"/>
	</g>
</g>
<g id="layer1_1_" inkscape:label="Layer 1" inkscape:groupmode="layer">
	<g id="g23783_1_" transform="translate(1.7272662,-5.6666587)">
		<path id="path22802_1_" sodipodi:nodetypes="ccccccc" fill="#7D7E81" stroke="#58595B" stroke-width="1.3431" d="M40.949,50.667
			h14.823v-2.208c0-1.651-6.17-0.564-4.47-7.176c2.125-8.273-7.443-8.272-5.314,0c1.698,6.618-5.039,5.498-5.039,7.176V50.667z"/>
		<path id="path18805_1_" sodipodi:nodetypes="ccccccc" fill="#BEC0C2" stroke="#A7A9AC" stroke-width="1.4651" d="M31.202,50.642
			h16.172v-2.408c0-1.804-6.73-0.617-4.876-7.829c2.318-9.026-8.116-9.025-5.798,0c1.854,7.219-5.498,5.998-5.498,7.829V50.642z"/>
	</g>
</g>
</svg>
